<svg width="50" height="50" viewBox="0 0 50 50" xmlns="http://www.w3.org/2000/svg">
    <path d="M21.7603 1.06271C23.3421 1.7782 24.7414 2.74621 25.9379 3.96675C27.1345 5.18729 28.0775 6.62879 28.767 8.2702C29.4565 9.91161 29.8013 11.6688 29.8013 13.5311C29.8013 15.3935 29.4565 17.1507 28.767 18.7921C28.0775 20.4335 27.1345 21.8645 25.9379 23.064C24.7414 24.274 23.3523 25.2315 21.7603 25.947C20.1785 26.6625 18.4851 27.0202 16.6903 27.0202H12.6851C12.6141 27.0202 12.5431 26.9781 12.5127 26.915L8.7102 19.6444C8.63922 19.5076 8.73048 19.3497 8.88258 19.3497H16.6903C17.461 19.3497 18.2012 19.1919 18.8806 18.8868C19.5701 18.5816 20.1582 18.1397 20.655 17.5715C21.1519 17.0034 21.5474 16.33 21.8414 15.5408C22.1355 14.7517 22.2876 13.8889 22.2876 12.9314C22.2876 12.1317 22.1355 11.3531 21.8414 10.6061C21.5372 9.85901 21.1418 9.1856 20.655 8.6069C20.1683 8.0282 19.5903 7.56524 18.9211 7.19697C18.2012 6.80766 17.39 6.62879 16.5788 6.62879H7.53397C7.42243 6.62879 7.34131 6.72348 7.34131 6.8287V38.1734C7.34131 38.2891 7.25005 38.3733 7.14865 38.3733H0.192659C0.08112 38.3733 0 38.2786 0 38.1734V0.199916C0 0.0841756 0.0912599 0 0.192659 0H16.6903C18.4851 0 20.1785 0.357744 21.7603 1.06271Z"/>
    <path d="M41.9083 40.625C41.9083 41.4141 42.172 42.0981 42.6891 42.6662C43.2975 43.3291 44.1898 43.6448 45.072 43.6448H49.8073C49.9189 43.6448 50 43.7395 50 43.8447V49.8001C50 49.9158 49.9087 50 49.8073 50H44.8692C43.5003 50 42.2024 49.7369 40.9856 49.2003C39.7688 48.6742 38.7143 47.9377 37.8118 47.0118C36.9093 46.0753 36.1996 44.9916 35.6723 43.75C35.145 42.5084 34.8814 41.1721 34.8814 39.7517V31.734C34.8814 31.6183 34.7901 31.5341 34.6887 31.5341H31.2715C31.16 31.5341 31.0789 31.4394 31.0789 31.3342V25.6524C31.0789 25.5366 31.1701 25.4524 31.2715 25.4524H34.6887C34.8002 25.4524 34.8814 25.3577 34.8814 25.2525V15.7302C34.8814 15.6145 34.9726 15.5303 35.074 15.5303H41.7157C41.8272 15.5303 41.9083 15.625 41.9083 15.7302V40.625V40.625Z"/>
    <path d="M46.5828 31.1869C48.4253 31.1869 49.9189 29.637 49.9189 27.7252C49.9189 25.8133 48.4253 24.2635 46.5828 24.2635C44.7404 24.2635 43.2468 25.8133 43.2468 27.7252C43.2468 29.637 44.7404 31.1869 46.5828 31.1869Z"/>
</svg>
